<?xml version="1.0" encoding="UTF-8"?>
<svg width="20px" height="20px" viewBox="0 0 20 20" version="1.1" xmlns="http://www.w3.org/2000/svg" xmlns:xlink="http://www.w3.org/1999/xlink">
    <!-- Generator: sketchtool 58 (101010) - https://sketch.com -->
    <title>C2FDA59D-6D6D-4CF7-8D52-AD97617AD296</title>
    <desc>Created with sketchtool.</desc>
    <g id="Assets" stroke="none" stroke-width="1" fill="none" fill-rule="evenodd">
        <g transform="translate(-542.000000, -528.000000)" fill="#616772" fill-rule="nonzero" id="download">
            <g transform="translate(542.000000, 528.000000)">
                <path d="M19,12 C19.5128358,12 19.9355072,12.3860402 19.9932723,12.8833789 L20,13 L20,17 C20,18.5976809 18.75108,19.9036609 17.1762728,19.9949073 L17,20 L3,20 C1.40231912,20 0.0963391206,18.75108 0.00509269341,17.1762728 L0,17 L0,13 C0,12.4477153 0.44771525,12 1,12 C1.51283584,12 1.93550716,12.3860402 1.99327227,12.8833789 L2,13 L2,17 C2,17.5128358 2.38604019,17.9355072 2.88337887,17.9932723 L3,18 L17,18 C17.5128358,18 17.9355072,17.6139598 17.9932723,17.1166211 L18,17 L18,13 C18,12.4477153 18.4477153,12 19,12 Z M10,0 C10.5522847,0 11,0.44771525 11,1 L11,1 L11,10.585 L14.2928932,7.29289322 C14.6834175,6.90236893 15.3165825,6.90236893 15.7071068,7.29289322 C16.0675907,7.65337718 16.0953203,8.22060824 15.7902954,8.61289944 L15.7071068,8.70710678 L10.7071068,13.7071068 C10.6786405,13.7355731 10.6484659,13.7623312 10.6167501,13.787214 L10.7071068,13.7071068 C10.6717127,13.7425008 10.6343256,13.774687 10.5953066,13.8036654 C10.5711307,13.8215099 10.546275,13.8382813 10.5206602,13.8539326 C10.5086131,13.8613931 10.4963944,13.8685012 10.4840621,13.8753288 C10.4642939,13.8862061 10.4438914,13.8966234 10.4230991,13.9063462 C10.4060985,13.914321 10.3887956,13.9218036 10.371336,13.9287745 C10.3515792,13.9366843 10.3317977,13.9438775 10.3117364,13.9504533 C10.2968513,13.9552713 10.2814633,13.9599023 10.265993,13.9641549 C10.2444365,13.9701664 10.2227461,13.9753602 10.2007941,13.9798348 C10.1833753,13.9832978 10.165949,13.9863719 10.1484669,13.9889822 C10.1003621,13.9962388 10.0506203,14 10,14 L10.0852242,13.996384 C10.0679231,13.997855 10.050591,13.9988772 10.0332468,13.9994506 L10,14 C9.98887338,14 9.97778921,13.9998183 9.96675029,13.9994576 C9.94973363,13.9989053 9.93173451,13.9978436 9.9137692,13.9962979 C9.89211395,13.9944666 9.87147534,13.9920328 9.85103878,13.9889807 C9.83405099,13.9863719 9.81662474,13.9832978 9.79927424,13.9797599 C9.77725392,13.9753602 9.75556352,13.9701664 9.73416039,13.964279 C9.71853672,13.9599023 9.70314866,13.9552713 9.68785748,13.9502619 C9.66820232,13.9438775 9.6484208,13.9366843 9.62894148,13.928896 C9.61120435,13.9218036 9.5939015,13.914321 9.57677845,13.9063266 C9.5561086,13.8966234 9.53570605,13.8862061 9.51572305,13.8751242 C9.50360556,13.8685012 9.49138689,13.8613931 9.47929125,13.8540045 C9.45372505,13.8382813 9.42886931,13.8215099 9.4048407,13.8036865 C9.39879136,13.7992821 9.39292666,13.7948255 9.38710056,13.7902954 C9.35153408,13.7623312 9.32135953,13.7355731 9.29289322,13.7071068 L4.29289322,8.70710678 C3.90236893,8.31658249 3.90236893,7.68341751 4.29289322,7.29289322 C4.65337718,6.93240926 5.22060824,6.90467972 5.61289944,7.20970461 L5.70710678,7.29289322 L9,10.585 L9,1 C9,0.487164161 9.38604019,0.0644928393 9.88337887,0.00672773133 Z" id="Combined-Shape"></path>
            </g>
        </g>
    </g>
</svg>