<?xml version="1.0" encoding="UTF-8"?>
<svg width="20px" height="15px" viewBox="0 0 20 15" version="1.1" xmlns="http://www.w3.org/2000/svg" xmlns:xlink="http://www.w3.org/1999/xlink">
    <!-- Generator: sketchtool 54.1 (76490) - https://sketchapp.com -->
    <title>C5674E5A-E3B8-48F1-AD8E-8EF9C022EDCF</title>
    <desc>Created with sketchtool.</desc>
    <g id="Assets" stroke="none" stroke-width="1" fill="none" fill-rule="evenodd">
        <g transform="translate(-666.000000, -116.000000)" fill="#616772" id="Icon/eye">
            <g transform="translate(665.000000, 112.000000)">
                <g id="eye" transform="translate(1.000000, 4.000000)">
                    <path d="M0.0879773408,7.872678 C-0.0293257803,7.63807175 -0.0293257803,7.36192825 0.0879773408,7.127322 C0.205117422,6.89304184 0.424972717,6.50218798 0.745279685,6.00622881 C1.27541708,5.18537091 1.90093859,4.36501482 2.621219,3.59671573 C4.71775645,1.36040911 7.18349796,0 10,0 C12.816502,0 15.2822436,1.36040911 17.378781,3.59671573 C18.0990614,4.36501482 18.7245829,5.18537091 19.2547203,6.00622881 C19.5750273,6.50218798 19.7948826,6.89304184 19.9120227,7.127322 C20.0293258,7.36192825 20.0293258,7.63807175 19.9120227,7.872678 C19.7948826,8.10695816 19.5750273,8.49781202 19.2547203,8.99377119 C18.7245829,9.81462909 18.0990614,10.6349852 17.378781,11.4032843 C15.2822436,13.6395909 12.816502,15 10,15 C7.18349796,15 4.71775645,13.6395909 2.621219,11.4032843 C1.90093859,10.6349852 1.27541708,9.81462909 0.745279685,8.99377119 C0.424972717,8.49781202 0.205117422,8.10695816 0.0879773408,7.872678 Z M2.14534531,8.08956214 C2.6243225,8.83120424 3.19020724,9.57334816 3.83711434,10.2633824 C5.64682689,12.1937424 7.71233537,13.3333333 10,13.3333333 C12.2876646,13.3333333 14.3531731,12.1937424 16.1628857,10.2633824 C16.8097928,9.57334816 17.3756775,8.83120424 17.8546547,8.08956214 C17.9906023,7.87906261 18.1111762,7.68135859 18.2160732,7.5 C18.1111762,7.31864141 17.9906023,7.12093739 17.8546547,6.91043786 C17.3756775,6.16879576 16.8097928,5.42665184 16.1628857,4.73661761 C14.3531731,2.80625755 12.2876646,1.66666667 10,1.66666667 C7.71233537,1.66666667 5.64682689,2.80625755 3.83711434,4.73661761 C3.19020724,5.42665184 2.6243225,6.16879576 2.14534531,6.91043786 C2.0093977,7.12093739 1.88882385,7.31864141 1.78392681,7.5 C1.88882385,7.68135859 2.0093977,7.87906261 2.14534531,8.08956214 Z M10,10.8333333 C8.15905083,10.8333333 6.66666667,9.34094917 6.66666667,7.5 C6.66666667,5.65905083 8.15905083,4.16666667 10,4.16666667 C11.8409492,4.16666667 13.3333333,5.65905083 13.3333333,7.5 C13.3333333,9.34094917 11.8409492,10.8333333 10,10.8333333 Z M10,9.16666667 C10.9204746,9.16666667 11.6666667,8.42047458 11.6666667,7.5 C11.6666667,6.57952542 10.9204746,5.83333333 10,5.83333333 C9.07952542,5.83333333 8.33333333,6.57952542 8.33333333,7.5 C8.33333333,8.42047458 9.07952542,9.16666667 10,9.16666667 Z" id="Combined-Shape"></path>
                </g>
            </g>
        </g>
    </g>
</svg>