<?xml version="1.0" encoding="UTF-8"?>
<svg width="20px" height="18px" viewBox="0 0 20 18" version="1.1" xmlns="http://www.w3.org/2000/svg" xmlns:xlink="http://www.w3.org/1999/xlink">
    <!-- Generator: sketchtool 54.1 (76490) - https://sketchapp.com -->
    <title>7BBCD5A5-00B3-4111-8917-7A54E191E079</title>
    <desc>Created with sketchtool.</desc>
    <g id="Assets" stroke="none" stroke-width="1" fill="none" fill-rule="evenodd">
        <g transform="translate(-372.000000, -114.000000)" fill="#616772" id="Icon/Filter">
            <g transform="translate(371.000000, 112.000000)">
                <path d="M8.4422035,11.6776212 L8.4422035,17.4607712 C8.4422035,17.722985 8.59148746,17.9626938 8.82781671,18.0799593 L12.548248,19.9260216 C13.0120703,20.1561682 13.5577965,19.821457 13.5577965,19.3068335 L13.5577965,11.6776212 L20.83373,3.13929162 C21.2171618,2.68933325 20.8948786,2 20.3010782,2 L1.6989218,2 C1.10512143,2 0.782838201,2.68933325 1.16627002,3.13929162 L8.4422035,11.6776212 Z M12.3275639,10.9771294 C12.2210682,11.1021024 12.1626348,11.2604784 12.1626348,11.4241477 L12.1626348,18.1867117 L9.83736523,17.0329228 L9.83736523,11.4241477 C9.83736523,11.2604784 9.7789318,11.1021024 9.67243615,10.9771294 L3.2024204,3.38454668 L18.7975796,3.38454668 L12.3275639,10.9771294 Z" id="Path"></path>
            </g>
        </g>
    </g>
</svg>