<?xml version="1.0" encoding="UTF-8"?>
<svg width="22px" height="20px" viewBox="0 0 22 20" version="1.1" xmlns="http://www.w3.org/2000/svg" xmlns:xlink="http://www.w3.org/1999/xlink">
    <!-- Generator: sketchtool 58 (101010) - https://sketch.com -->
    <title>315FE7DA-4E01-474D-BCB5-A2EBC3F4B9EC</title>
    <desc>Created with sketchtool.</desc>
    <g id="Assets" stroke="none" stroke-width="1" fill="none" fill-rule="evenodd">
        <g transform="translate(-542.000000, -602.000000)" fill="#A1A9B9" fill-rule="nonzero" id="folder">
            <g transform="translate(542.000000, 602.000000)">
                <path d="M10.5351838,3 L19,3 C20.6568542,3 22,4.34314575 22,6 L22,17 C22,18.6568542 20.6568542,20 19,20 L3,20 C1.34314575,20 0,18.6568542 0,17 L0,3 C0,1.34314575 1.34314575,0 3,0 L8,0 C8.33435319,0 8.64658452,0.167101135 8.83205029,0.445299804 L10.5351838,3 Z M7.46481624,2 L3,2 C2.44771525,2 2,2.44771525 2,3 L2,17 C2,17.5522847 2.44771525,18 3,18 L19,18 C19.5522847,18 20,17.5522847 20,17 L20,6 C20,5.44771525 19.5522847,5 19,5 L10,5 C9.66564681,5 9.35341548,4.83289886 9.16794971,4.5547002 L7.46481624,2 Z" id="Path"></path>
            </g>
        </g>
    </g>
</svg>