<?xml version="1.0" encoding="UTF-8"?>
<svg width="20px" height="21px" viewBox="0 0 20 21" version="1.1" xmlns="http://www.w3.org/2000/svg" xmlns:xlink="http://www.w3.org/1999/xlink">
    <!-- Generator: sketchtool 54.1 (76490) - https://sketchapp.com -->
    <title>04B5C3C3-C576-4F5E-A642-72ABE2E77FD2</title>
    <desc>Created with sketchtool.</desc>
    <g id="User-Management" stroke="none" stroke-width="1" fill="none" fill-rule="evenodd">
        <g transform="translate(-1322.000000, -24.000000)" id="header">
            <g>
                <g id="Icon/Notification" transform="translate(1320.000000, 24.000000)">
                    <path d="M15.6402361,7.36466157 C15.6402361,4.85387191 13.6048389,2.81847473 11.0940493,2.81847473 C8.58325962,2.81847473 6.54786244,4.85387191 6.54786244,7.36466157 C6.54786244,10.2971759 6.00046989,12.5779782 5.07298448,14.2783681 C5.00432934,14.4042358 4.93527466,14.5242554 4.86611725,14.6385605 L17.3219813,14.6385605 C17.2528239,14.5242554 17.1837692,14.4042358 17.1151141,14.2783681 C16.1876287,12.5779782 15.6402361,10.2971759 15.6402361,7.36466157 Z M17.4587109,7.36466157 C17.4587109,10.0012262 17.9342103,11.982474 18.711545,13.4075876 C18.9718199,13.8847583 19.2448771,14.2579364 19.5110439,14.5388902 C19.6548085,14.6906417 19.7516329,14.7713288 19.7815397,14.7912667 C20.5300577,15.2902787 20.1767923,16.4570352 19.2771856,16.4570352 L2.91091297,16.4570352 C2.01130629,16.4570352 1.65804082,15.2902787 2.40655883,14.7912667 C2.43646563,14.7713288 2.53329011,14.6906417 2.67705468,14.5388902 C2.94322147,14.2579364 3.21627862,13.8847583 3.47655356,13.4075876 C4.25388822,11.982474 4.72938771,10.0012262 4.72938771,7.36466157 C4.72938771,3.84955605 7.57894376,1 11.0940493,1 C14.6091548,1 17.4587109,3.84955605 17.4587109,7.36466157 Z M11.8805396,18.7285176 C12.1325083,18.294151 12.688893,18.1462883 13.1232597,18.398257 C13.5576263,18.6502257 13.705489,19.2066105 13.4535202,19.6409771 C12.9655356,20.4822094 12.0665722,21 11.0940493,21 C10.1215263,21 9.22256295,20.4822094 8.73457831,19.6409771 C8.48260959,19.2066105 8.6304723,18.6502257 9.06483891,18.398257 C9.49920552,18.1462883 10.0555902,18.294151 10.307559,18.7285176 C10.4702205,19.0089284 10.769875,19.1815253 11.0940493,19.1815253 C11.4182236,19.1815253 11.7178781,19.0089284 11.8805396,18.7285176 Z" id="Combined-Shape" fill="#A1A9B9"></path>
                    <!-- <circle id="Oval" stroke="#FFFFFF" stroke-width="2" fill="#1055B6" cx="16" cy="6" r="5"></circle> -->
                </g>
            </g>
        </g>
    </g>
</svg>