<?xml version="1.0" encoding="UTF-8"?>
<svg width="20px" height="20px" viewBox="0 0 20 20" version="1.1" xmlns="http://www.w3.org/2000/svg" xmlns:xlink="http://www.w3.org/1999/xlink">
    <!-- Generator: sketchtool 54.1 (76490) - https://sketchapp.com -->
    <title>AE8F3831-2C98-4A6B-9AAA-F212C3E9FF32</title>
    <desc>Created with sketchtool.</desc>
    <g id="Assets" stroke="none" stroke-width="1" fill="none" fill-rule="evenodd">
        <g transform="translate(-456.000000, -113.000000)" fill="#A1A9B9" id="Icon/Search">
            <g transform="translate(455.000000, 112.000000)">
                <g id="search" transform="translate(1.000000, 1.000000)">
                    <path d="M14.6176858,16.0318994 C13.078015,17.2635271 11.1250137,18 9,18 C4.02943725,18 0,13.9705627 0,9 C0,4.02943725 4.02943725,0 9,0 C13.9705627,0 18,4.02943725 18,9 C18,11.1250137 17.2635271,13.078015 16.0318994,14.6176858 L19.7071068,18.2928932 C20.0976311,18.6834175 20.0976311,19.3165825 19.7071068,19.7071068 C19.3165825,20.0976311 18.6834175,20.0976311 18.2928932,19.7071068 L14.6176858,16.0318994 Z M14.0413859,13.8563911 C15.2541765,12.5976949 16,10.8859457 16,9 C16,5.13400675 12.8659932,2 9,2 C5.13400675,2 2,5.13400675 2,9 C2,12.8659932 5.13400675,16 9,16 C10.8859457,16 12.5976949,15.2541765 13.8563911,14.0413859 C13.8827083,14.0071587 13.9115424,13.9742441 13.9428932,13.9428932 C13.9742441,13.9115424 14.0071587,13.8827083 14.0413859,13.8563911 Z" id="Combined-Shape"></path>
                </g>
            </g>
        </g>
    </g>
</svg>