<?xml version="1.0" encoding="UTF-8"?>
<svg width="15px" height="16px" viewBox="0 0 15 16" version="1.1" xmlns="http://www.w3.org/2000/svg" xmlns:xlink="http://www.w3.org/1999/xlink">
    <!-- Generator: sketchtool 58 (101010) - https://sketch.com -->
    <title>79074CF8-FC74-4952-9067-FF5B87FD361E</title>
    <desc>Created with sketchtool.</desc>
    <g id="Assets" stroke="none" stroke-width="1" fill="none" fill-rule="evenodd">
        <g transform="translate(-545.000000, -567.000000)" fill="#616772" fill-rule="nonzero" id="trash-2">
            <g transform="translate(545.000000, 567.000000)">
                <path d="M8.72727273,0 C9.88922246,0 10.8390261,0.908305429 10.9053871,2.05361979 L10.9090909,2.18181818 L10.909,2.909 L13.8181818,2.90909091 C14.1863717,2.90909091 14.4906579,3.18269467 14.5388154,3.53767704 L14.5454545,3.63636364 C14.5454545,4.00455347 14.2718508,4.30883972 13.9168684,4.35699722 L13.8181818,4.36363636 L13.09,4.363 L13.0909091,13.8181818 C13.0909091,14.9801316 12.1826037,15.9299352 11.0372893,15.9962962 L10.9090909,16 L3.63636364,16 C2.4744139,16 1.52461027,15.0916946 1.45824923,13.9463802 L1.45454545,13.8181818 L1.454,4.363 L0.727272727,4.36363636 C0.359082894,4.36363636 0.054796644,4.0900326 0.00663914278,3.73505024 L0,3.63636364 C0,3.2681738 0.273603764,2.96388755 0.628586126,2.91573005 L0.727272727,2.90909091 L3.636,2.909 L3.63636364,2.18181818 C3.63636364,1.01986845 4.54466907,0.070064815 5.68998343,0.00370377703 L5.81818182,0 L8.72727273,0 Z M11.636,4.363 L2.909,4.363 L2.90909091,13.8181818 C2.90909091,14.1911533 3.18984741,14.4985507 3.55154827,14.5405616 L3.63636364,14.5454545 L10.9090909,14.5454545 C11.2820624,14.5454545 11.5894598,14.264698 11.6314707,13.9029972 L11.6363636,13.8181818 L11.636,4.363 Z M5.81818182,6.54545455 C6.18637165,6.54545455 6.4906579,6.81905831 6.5388154,7.17404067 L6.54545455,7.27272727 L6.54545455,11.6363636 C6.54545455,12.0380253 6.21984345,12.3636364 5.81818182,12.3636364 C5.44999198,12.3636364 5.14570573,12.0900326 5.09754823,11.7350502 L5.09090909,11.6363636 L5.09090909,7.27272727 C5.09090909,6.87106564 5.41652018,6.54545455 5.81818182,6.54545455 Z M8.72727273,6.54545455 C9.12893436,6.54545455 9.45454545,6.87106564 9.45454545,7.27272727 L9.45454545,7.27272727 L9.45454545,11.6363636 C9.45454545,12.0380253 9.12893436,12.3636364 8.72727273,12.3636364 C8.32561109,12.3636364 8,12.0380253 8,11.6363636 L8,11.6363636 L8,7.27272727 C8,6.87106564 8.32561109,6.54545455 8.72727273,6.54545455 Z M8.72727273,1.45454545 L5.81818182,1.45454545 C5.4452103,1.45454545 5.13781297,1.73530196 5.09580199,2.09700282 L5.09090909,2.18181818 L5.09,2.909 L9.454,2.909 L9.45454545,2.18181818 C9.45454545,1.80884666 9.17378895,1.50144934 8.81208809,1.45943835 L8.72727273,1.45454545 Z" id="Combined-Shape"></path>
            </g>
        </g>
    </g>
</svg>